# xmcd CD database file
#
# Track frame offsets:
#	150
#	12090
#	27167
#	48403
#	70817
#	82486
#	104031
#	131853
#	148930
#	168625
#	182391
#	202623
#	223164
#
# Disc length: 3298 seconds
#
# Revision: 0
# Processed by: cddbd v1.5.1PL2 Copyright (c) Steve Scherf et al.
# Submitted via: CDex 1.51
#
DISCID=c20ce00d
DTITLE=Diana Krall - When I look in your eyes
DYEAR=1900
DGENRE=Jazz
TTITLE0=Let's face the music and dance
TTITLE1=Devil may care
TTITLE2=Let's fall in love
TTITLE3=When I look in your eyes
TTITLE4=Popsicle Toes
TTITLE5=I've got you under my skin
TTITLE6=I can't give you anything but love
TTITLE7=I'll string along with you
TTITLE8=East of the sun (and west of the moon)
TTITLE9=Pick yourself up
TTITLE10=The best thing for you
TTITLE11=Do it again
TTITLE12=Why should I care?
EXTD=
EXTT0=
EXTT1=
EXTT2=
EXTT3=
EXTT4=
EXTT5=
EXTT6=
EXTT7=
EXTT8=
EXTT9=
EXTT10=
EXTT11=
EXTT12=
PLAYORDER=
